<svg width="23" height="22" viewBox="0 0 23 22" fill="none" xmlns="http://www.w3.org/2000/svg">
<path d="M21.0172 1.89995H18.6288V0H17.7882V1.89995H15.6158V0H14.7753V1.89995H7.26118V0H6.42078V1.89995H4.24825V0H3.40768V1.89995H1.02854C0.893634 1.8996 0.76012 1.92599 0.635518 1.97754C0.510741 2.02892 0.397502 2.10459 0.301911 2.20018C0.206321 2.2956 0.130478 2.40919 0.0785732 2.53414C0.0268479 2.65909 -6.62605e-05 2.79295 -0.000240736 2.92839V20.5124C-0.000590225 20.648 0.0259729 20.7824 0.0775264 20.9079C0.129252 21.0334 0.204925 21.1473 0.300515 21.2432C0.396106 21.3393 0.509698 21.4154 0.634471 21.4673C0.759422 21.519 0.893285 21.5456 1.02854 21.5454H21.0172C21.1525 21.5456 21.2863 21.519 21.4113 21.4673C21.5361 21.4154 21.6496 21.3393 21.7452 21.2432C21.8408 21.1473 21.9167 21.0334 21.9682 20.9079C22.0198 20.7824 22.0463 20.648 22.046 20.5124V2.92839C22.0458 2.79295 22.0189 2.65909 21.9672 2.53414C21.9153 2.40919 21.8394 2.2956 21.7438 2.20018C21.6482 2.10459 21.535 2.02892 21.4102 1.97754C21.2856 1.92599 21.1521 1.8996 21.0172 1.89995V1.89995ZM21.2194 20.5125C21.2189 20.5661 21.1974 20.6175 21.1596 20.6554C21.1219 20.6934 21.0707 20.7149 21.0172 20.7154H1.02854C0.97507 20.7149 0.923868 20.6934 0.886118 20.6554C0.848369 20.6175 0.826877 20.5661 0.826354 20.5125V6.76514H21.2194L21.2194 20.5125ZM21.2194 5.91647H0.826309V2.92815C0.827008 2.87502 0.848678 2.82417 0.886602 2.78712C0.924524 2.7499 0.975553 2.72928 1.0285 2.72998H3.40764V4.28389H4.24821V2.72998H6.42074V4.28389H7.26114V2.72998H14.7752V4.28389H15.6158V2.72998H17.7882V4.28389H18.6288V2.72998H21.0172C21.0701 2.72928 21.1211 2.7499 21.1591 2.78712C21.197 2.82417 21.2187 2.87502 21.2194 2.92815L21.2194 5.91647Z" fill="#4E4E4E"/>
<path d="M18.6397 10.2037H15.6367V11.049H18.6397V10.2037Z" fill="#767676"/>
<path d="M12.778 10.1665H9.77515V11.0118H12.778V10.1665Z" fill="#767676"/>
<path d="M5.36761 8.99764C5.68287 8.99764 5.99098 9.09149 6.25292 9.26712C6.51505 9.44292 6.71917 9.69282 6.83992 9.9852C6.9605 10.2776 6.99195 10.5993 6.93061 10.9096C6.8691 11.22 6.71724 11.5051 6.49442 11.7287C6.27161 11.9526 5.98764 12.105 5.6785 12.1667C5.36954 12.2284 5.04905 12.1967 4.7579 12.0756C4.46676 11.9545 4.21792 11.7494 4.04281 11.4864C3.86771 11.2232 3.77422 10.9138 3.77422 10.5976C3.77474 10.1732 3.94285 9.7666 4.2415 9.46673C4.54014 9.16685 4.94522 8.99802 5.36763 8.9977L5.36761 8.99764ZM5.36761 8.21353C4.89805 8.21353 4.43913 8.35334 4.04857 8.6153C3.65817 8.87726 3.35394 9.24967 3.17409 9.68515C2.99444 10.1208 2.94743 10.6002 3.03901 11.0626C3.13075 11.525 3.35689 11.9498 3.68891 12.283C4.02094 12.6165 4.44403 12.8435 4.90451 12.9356C5.36499 13.0275 5.84243 12.9803 6.27634 12.8C6.71008 12.6195 7.08089 12.314 7.3418 11.9218C7.60271 11.5299 7.74199 11.069 7.74199 10.5975C7.74199 9.96524 7.49174 9.35882 7.04646 8.91181C6.60136 8.46478 5.99741 8.2135 5.3676 8.2135L5.36761 8.21353Z" fill="#767676"/>
<path d="M6.004 10.1683H4.75171V11.0136H6.004V10.1683Z" fill="#767676"/>
<path d="M18.6397 12.9707H15.6367V13.816H18.6397V12.9707Z" fill="#767676"/>
<path d="M12.778 12.9337H9.77515V13.779H12.778V12.9337Z" fill="#767676"/>
<path d="M18.6397 15.7377H15.6367V16.583H18.6397V15.7377Z" fill="#767676"/>
<path d="M12.778 15.7001H9.77515V16.5454H12.778V15.7001Z" fill="#767676"/>
<path d="M6.85358 15.743H3.85059V16.5884H6.85358V15.743Z" fill="#767676"/>
</svg>
