<svg width="32" height="32" viewBox="0 0 32 32" fill="none" xmlns="http://www.w3.org/2000/svg">
<path d="M15.9987 8.69727C11.9663 8.69727 8.69678 11.9867 8.69678 16.0436C8.69678 19.7266 11.3937 22.7679 14.907 23.2991V17.9903H13.1004V16.0594H14.907V14.7743C14.907 12.647 15.9372 11.7135 17.6947 11.7135C18.5361 11.7135 18.9818 11.7765 19.1921 11.8047V13.4902H17.9935C17.2476 13.4902 16.987 14.2022 16.987 15.0041V16.0594H19.1733L18.877 17.9903H16.987V23.3144C20.5509 22.8284 23.3006 19.7627 23.3006 16.0436C23.3006 11.9867 20.0313 8.69727 15.9987 8.69727Z" fill="#00B2FF"/>
<rect x="0.5" y="0.5" width="30.0606" height="30.0606" rx="3.5" stroke="#D9D9D9"/>
</svg>
