<svg width="33" height="32" viewBox="0 0 33 32" fill="none" xmlns="http://www.w3.org/2000/svg">
<path d="M13.8508 9.93945C11.8159 9.93945 10.1602 11.5977 10.1602 13.635V18.9131C10.1602 20.9501 11.8169 22.6076 13.8523 22.6076H19.1256C21.1608 22.6076 22.8168 20.9494 22.8168 18.9121V13.6335C22.8168 11.5967 21.1601 9.93945 19.1246 9.93945H13.8508ZM20.2855 11.9664C20.5649 11.9664 20.7917 12.1934 20.7917 12.4731C20.7917 12.7528 20.5649 12.9798 20.2855 12.9798C20.006 12.9798 19.7792 12.7528 19.7792 12.4731C19.7792 12.1934 20.006 11.9664 20.2855 11.9664ZM16.4885 12.9798C18.3034 12.9798 19.7792 14.4569 19.7792 16.2735C19.7792 18.0902 18.3032 19.5673 16.4885 19.5673C14.6735 19.5673 13.1977 18.0899 13.1977 16.2735C13.1977 14.4572 14.6735 12.9798 16.4885 12.9798ZM16.4885 13.9933C15.2301 13.9933 14.2103 15.0141 14.2103 16.2735C14.2103 17.533 15.2301 18.5538 16.4885 18.5538C17.7468 18.5538 18.7667 17.533 18.7667 16.2735C18.7667 15.0141 17.7468 13.9933 16.4885 13.9933Z" fill="#D23939"/>
<rect x="1.46973" y="0.5" width="30.0606" height="30.0606" rx="3.5" stroke="#D9D9D9"/>
</svg>
