<svg width="32" height="32" viewBox="0 0 32 32" fill="none" xmlns="http://www.w3.org/2000/svg">
<path d="M24.5456 10.3132C23.9519 10.5895 23.3136 10.7737 22.6401 10.8608C23.3249 10.4338 23.8515 9.75287 24.0987 8.94832C23.4581 9.34287 22.7485 9.63254 21.9933 9.78525C21.3903 9.1138 20.5302 8.69727 19.5774 8.69727C17.7469 8.69727 16.2635 10.2422 16.2635 12.1469C16.2635 12.4164 16.2935 12.679 16.35 12.9339C13.5964 12.7887 11.1542 11.4137 9.52027 9.32682C9.2332 9.83665 9.0717 10.4338 9.0717 11.064C9.0717 12.2616 9.65546 13.3157 10.5455 13.9369C10.0022 13.9194 9.49085 13.7608 9.04314 13.5062C9.04314 13.5165 9.04314 13.532 9.04314 13.5466C9.04314 15.2201 10.1858 16.6135 11.7003 16.9308C11.4234 17.0105 11.131 17.0547 10.8295 17.0547C10.6154 17.0547 10.4069 17.0292 10.205 16.9912C10.6267 18.3587 11.8502 19.3585 13.2997 19.3879C12.1656 20.3116 10.7373 20.8648 9.18398 20.8648C8.91558 20.8648 8.6534 20.8487 8.39404 20.8157C9.86108 21.7917 11.6036 22.3639 13.4739 22.3639C19.5686 22.3639 22.9026 17.1064 22.9026 12.5456C22.9026 12.3962 22.8981 12.2473 22.8913 12.1003C23.5421 11.6178 24.1026 11.0087 24.5456 10.3132Z" fill="#00B2FF"/>
<rect x="1.43945" y="0.5" width="30.0606" height="30.0606" rx="3.5" stroke="#D9D9D9"/>
</svg>
